<svg width="127" height="124" viewBox="0 0 127 124" fill="none" xmlns="http://www.w3.org/2000/svg">
<g clip-path="url(#clip0_4173_55609)">
<path d="M80.6239 28.1618H46.403C45.6231 28.1627 44.8755 28.4705 44.3241 29.0176C43.7727 29.5647 43.4624 30.3065 43.4615 31.0803V106.543L43.0693 106.662L34.6743 109.212C34.2765 109.333 33.8468 109.292 33.4795 109.098C33.1122 108.904 32.8374 108.574 32.7154 108.179L7.74423 27.2493C7.62271 26.8545 7.66413 26.428 7.85939 26.0635C8.05464 25.6991 8.38776 25.4264 8.78553 25.3055L21.7221 21.3753L59.2258 9.98535L72.1623 6.0551C72.3592 5.99498 72.5661 5.97397 72.7712 5.99328C72.9762 6.01258 73.1754 6.07182 73.3574 6.1676C73.5394 6.26338 73.7005 6.39383 73.8316 6.55147C73.9627 6.70911 74.0612 6.89086 74.1214 7.0863L80.5043 27.7726L80.6239 28.1618Z" fill="#F2F2F2"/>
<path d="M88.0911 27.7735L80.3982 2.84175C80.2702 2.42634 80.0609 2.04003 79.7824 1.70488C79.5039 1.36973 79.1616 1.09233 78.7749 0.888511C78.3883 0.684695 77.965 0.558461 77.5292 0.517028C77.0934 0.475595 76.6536 0.519775 76.235 0.64704L58.047 6.17079L20.5453 17.5627L2.35722 23.0884C1.5123 23.3458 0.804833 23.9253 0.390114 24.6997C-0.0246057 25.4742 -0.112698 26.3802 0.145177 27.219L26.438 112.426C26.6475 113.103 27.0702 113.695 27.644 114.117C28.2179 114.538 28.9127 114.766 29.6266 114.766C29.957 114.766 30.2855 114.717 30.6011 114.62L43.069 110.834L43.4612 110.713V110.307L43.069 110.425L30.4855 114.249C29.7397 114.474 28.9341 114.397 28.2456 114.034C27.557 113.671 27.0417 113.052 26.8126 112.313L0.521765 27.1042C0.408242 26.7378 0.368676 26.3528 0.405332 25.9713C0.441988 25.5897 0.554142 25.219 0.735379 24.8805C0.916617 24.542 1.16338 24.2423 1.46152 23.9985C1.75967 23.7548 2.10335 23.5718 2.47288 23.46L20.6609 17.9343L58.1627 6.54436L76.3508 1.01867C76.6311 0.933796 76.9225 0.890522 77.2155 0.890251C77.8444 0.891652 78.4564 1.09283 78.9617 1.46431C79.467 1.83579 79.8392 2.35805 80.0237 2.9546L87.6813 27.7735L87.8029 28.1627H88.2108L88.0911 27.7735Z" fill="#3F3D56"/>
<path d="M24.0575 25.3691C23.6795 25.3688 23.3116 25.2484 23.0077 25.0254C22.7038 24.8025 22.4799 24.4888 22.3688 24.1303L19.843 15.9446C19.7751 15.7247 19.7516 15.4937 19.7737 15.2648C19.7958 15.0359 19.8631 14.8135 19.9719 14.6104C20.0806 14.4073 20.2286 14.2275 20.4074 14.0812C20.5862 13.9348 20.7923 13.8249 21.0139 13.7576L55.5152 3.27749C55.9627 3.14198 56.4462 3.1882 56.8595 3.406C57.2727 3.62379 57.582 3.99538 57.7195 4.43919L60.2453 12.6251C60.3818 13.0691 60.3351 13.5488 60.1156 13.9588C59.8961 14.3688 59.5217 14.6757 59.0744 14.8121L24.5731 25.2922C24.406 25.3431 24.2322 25.369 24.0575 25.3691Z" fill="#5557CD"/>
<path d="M37.2891 9.24751C39.4552 9.24751 41.2111 7.5053 41.2111 5.35618C41.2111 3.20705 39.4552 1.46484 37.2891 1.46484C35.1231 1.46484 33.3672 3.20705 33.3672 5.35618C33.3672 7.5053 35.1231 9.24751 37.2891 9.24751Z" fill="#5557CD"/>
<path d="M37.2882 7.81885C38.6598 7.81885 39.7717 6.71563 39.7717 5.35474C39.7717 3.99385 38.6598 2.89062 37.2882 2.89062C35.9166 2.89062 34.8047 3.99385 34.8047 5.35474C34.8047 6.71563 35.9166 7.81885 37.2882 7.81885Z" fill="white"/>
<path d="M118.174 113.771H51.8934C51.4515 113.771 51.0278 113.596 50.7153 113.286C50.4028 112.976 50.2271 112.556 50.2266 112.117V33.3179C50.2271 32.8794 50.4028 32.459 50.7153 32.149C51.0278 31.839 51.4515 31.6646 51.8934 31.6641H118.174C118.616 31.6646 119.04 31.839 119.352 32.149C119.665 32.4591 119.841 32.8794 119.841 33.3179V112.117C119.841 112.556 119.665 112.976 119.352 113.286C119.04 113.596 118.616 113.771 118.174 113.771Z" fill="#E6E6E6"/>
<path d="M87.6825 27.7734H46.404C45.5202 27.7747 44.673 28.1236 44.0481 28.7436C43.4232 29.3636 43.0716 30.2042 43.0703 31.0811V110.425L43.4625 110.307V31.0811C43.4635 30.3073 43.7737 29.5655 44.3251 29.0184C44.8765 28.4713 45.6241 28.1635 46.404 28.1626H87.8041L87.6825 27.7734ZM123.666 27.7734H46.404C45.5202 27.7747 44.673 28.1236 44.0481 28.7436C43.4232 29.3636 43.0716 30.2042 43.0703 31.0811V120.193C43.0716 121.069 43.4232 121.91 44.0481 122.53C44.673 123.15 45.5202 123.499 46.404 123.5H123.666C124.55 123.499 125.397 123.15 126.022 122.53C126.647 121.91 126.999 121.069 127 120.193V31.0811C126.999 30.2042 126.647 29.3636 126.022 28.7436C125.397 28.1236 124.55 27.7747 123.666 27.7734ZM126.608 120.193C126.607 120.966 126.297 121.708 125.745 122.255C125.194 122.802 124.446 123.11 123.666 123.111H46.404C45.6241 123.11 44.8765 122.802 44.3251 122.255C43.7737 121.708 43.4635 120.966 43.4625 120.193V31.0811C43.4635 30.3073 43.7737 29.5655 44.3251 29.0184C44.8765 28.4713 45.6241 28.1635 46.404 28.1626H123.666C124.446 28.1635 125.194 28.4713 125.745 29.0184C126.297 29.5655 126.607 30.3073 126.608 31.0811V120.193Z" fill="#3F3D56"/>
<path d="M103.077 36.3346H66.9953C66.5274 36.3341 66.0788 36.1494 65.748 35.8212C65.4171 35.4929 65.231 35.0478 65.2305 34.5835V26.0226C65.231 25.5583 65.4171 25.1132 65.748 24.7849C66.0788 24.4567 66.5274 24.272 66.9953 24.2715H103.077C103.545 24.272 103.994 24.4567 104.325 24.7849C104.656 25.1132 104.842 25.5583 104.842 26.0226V34.5835C104.842 35.0478 104.656 35.4929 104.325 35.8212C103.994 36.1494 103.545 36.3341 103.077 36.3346Z" fill="#5557CD"/>
<path d="M85.0352 24.8549C87.2013 24.8549 88.9572 23.1127 88.9572 20.9636C88.9572 18.8145 87.2013 17.0723 85.0352 17.0723C82.8692 17.0723 81.1133 18.8145 81.1133 20.9636C81.1133 23.1127 82.8692 24.8549 85.0352 24.8549Z" fill="#5557CD"/>
<path d="M85.0334 23.3341C86.3527 23.3341 87.4222 22.273 87.4222 20.9639C87.4222 19.6549 86.3527 18.5938 85.0334 18.5938C83.7141 18.5938 82.6445 19.6549 82.6445 20.9639C82.6445 22.273 83.7141 23.3341 85.0334 23.3341Z" fill="white"/>
</g>
<defs>
<clipPath id="clip0_4173_55609">
<rect width="127" height="123" fill="white" transform="translate(0 0.5)"/>
</clipPath>
</defs>
</svg>
